HIERARCHY
ROOT ui
{
	 OFFSET 0 0 0
	 CHANNELS 3 XPosition YPosition Z Position
	 EndSite
	 {
	 OFFSET 0 -1 0
	 }
}
ROOT li
{
	 OFFSET 0 0 0
	 CHANNELS 3 XPosition YPosition Z Position
	 EndSite
	 {
	 OFFSET 0 -1 0
	 }
}
ROOT ul
{
	 OFFSET 0 0 0
	 CHANNELS 3 XPosition YPosition Z Position
	 EndSite
	 {
	 OFFSET 0 -1 0
	 }
}
ROOT ll
{
	 OFFSET 0 0 0
	 CHANNELS 3 XPosition YPosition Z Position
	 EndSite
	 {
	 OFFSET 0 -1 0
	 }
}
ROOT tt
{
	 OFFSET 0 0 0
	 CHANNELS 3 XPosition YPosition Z Position
	 EndSite
	 {
	 OFFSET 0 -1 0
	 }
}
ROOT tb
{
	 OFFSET 0 0 0
	 CHANNELS 3 XPosition YPosition Z Position
	 EndSite
	 {
	 OFFSET 0 -1 0
	 }
}
ROOT td
{
	 OFFSET 0 0 0
	 CHANNELS 3 XPosition YPosition Z Position
	 EndSite
	 {
	 OFFSET 0 -1 0
	 }
}
ROOT v
{
	 OFFSET 0 0 0
	 CHANNELS 3 XPosition YPosition Z Position
	 EndSite
	 {
	 OFFSET 0 -1 0
	 }
}
ROOT bn
{
	 OFFSET 0 0 0
	 CHANNELS 3 XPosition YPosition Z Position
	 EndSite
	 {
	 OFFSET 0 -1 0
	 }
}
MOTION
Frames: 27
Frame Time: 0.002
-0.011620603561401367	0.005872527122497559	0		0.49294586181640626	-2.386700439453125	0		-0.9864395751953124	0.18963328552246095	0		-0.6323274536132812	-2.886316162109375	0		1.7251236572265625	-0.5188027954101563	0		3.389235107421875	-0.03298992156982422	0		4.644373046875	-0.0368194694519043	0		5.91562109375	0.35012261962890623	0		0.02470357322692871	6.0162060546875	0		
-0.00334973406791687	-0.0027614150047302246	0		0.518344482421875	-2.38864404296875	0		-0.99207568359375	0.18625181579589845	0		-0.5959118041992187	-2.887461669921875	0		1.718416015625	-0.5261617431640625	0		3.379708984375	-0.030293680191040038	0		4.64380908203125	-0.036284866333007815	0		5.91891064453125	0.3425875244140625	0		0.006243515968322754	6.023060546875	0		
-0.003891441106796265	-0.002244462966918945	0		0.47374252319335936	-2.3913251953125	0		-1.0635333251953125	0.19205706787109375	0		-0.6262967529296875	-2.878401611328125	0		1.7240198974609375	-0.51775146484375	0		3.394001220703125	-0.039040611267089846	0		4.64739404296875	-0.028831647872924804	0		5.9183681640625	0.343117431640625	0		0.006670279026031494	6.0225595703125	0		
0.021596471786499025	-0.00221533203125	0		0.5322676391601563	-2.389895263671875	0		-0.9839821166992188	0.1951009063720703	0		-0.6165804443359375	-2.866085205078125	0		1.6835382080078125	-0.5155179443359375	0		3.4059462890625	-0.013752150535583495	0		4.64515966796875	-0.013283695220947266	0		5.92229541015625	0.36755813598632814	0		0.006128505229949951	6.02206201171875	0		
0.007190423011779785	0.0015221740007400513	0		0.47111196899414065	-2.372303955078125	0		-0.9852999267578125	0.20359861755371095	0		-0.5760062866210938	-2.86434912109375	0		1.7230518798828125	-0.516757080078125	0		3.3863955078125	-0.01791353225708008	0		4.6579853515625	0.00297296404838562	0		5.9135419921875	0.3522052001953125	0		-0.00954772186279297	6.01181982421875	0		
0.020724021911621093	-0.0012698620557785034	0		0.52257177734375	-2.37978515625	0		-0.994835693359375	0.19722312927246094	0		-0.6211475830078125	-2.84907275390625	0		1.67188818359375	-0.502366455078125	0		3.381114013671875	-0.010354395866394042	0		4.65272216796875	0.011534740447998047	0		5.91313134765625	0.35268017578125	0		-0.010934016227722169	6.01429931640625	0		
-0.005622594833374023	-3.597500026226044E-4	0		0.46832406616210936	-2.3733662109375	0		-0.9951868896484375	0.1976592254638672	0		-0.5824827270507813	-2.84834521484375	0		1.702296630859375	-0.5154879150390625	0		3.38563525390625	-0.017001819610595704	0		4.64653564453125	0.02108641052246094	0		5.92077880859375	0.35298065185546873	0		-0.010329970359802246	6.01271923828125	0		
0.021937652587890624	-0.008456985473632812	0		0.4949761657714844	-2.37644580078125	0		-0.9954766845703125	0.1980692443847656	0		-0.61262109375	-2.83939111328125	0		1.662050048828125	-0.5123502197265625	0		3.378710205078125	0.003533649921417236	0		4.649626953125	0.04244039916992187	0		5.916634765625	0.3614644775390625	0		0.004593836784362793	6.02485498046875	0		
-0.00614045000076294	4.317249953746796E-4	0		0.46984085083007815	-2.370611572265625	0		-0.9916507568359375	0.2013780822753906	0		-0.6036715698242188	-2.8291748046875	0		1.6618214111328125	-0.5119706726074219	0		3.39331591796875	-0.005359538078308105	0		4.65554345703125	0.0507068099975586	0		5.92540576171875	0.361676513671875	0		-0.010844344139099122	6.0135107421875	0		
0.019687143325805664	3.0964499711990355E-4	0		0.5256033325195313	-2.37427978515625	0		-0.9918184204101562	0.20173098754882812	0		-0.6085546875	-2.812734375	0		1.661652099609375	-0.5116240539550782	0		3.391384521484375	0.008017189025878906	0		4.6546484375	0.06606204223632813	0		5.92040283203125	0.3711024169921875	0		-0.010998208045959473	6.013861328125	0		
-0.001493685007095337	-0.0029887070655822755	0		0.4964872741699219	-2.373435302734375	0		-0.99192919921875	0.2020540771484375	0		-0.56966552734375	-2.8121220703125	0		1.6876614990234375	-0.5047852478027344	0		3.40123486328125	0.006141664981842041	0		4.65582763671875	0.08234224700927735	0		5.92898193359375	0.3542377014160156	0		-0.011086278915405274	6.0141806640625	0		
-0.0064802498817443845	0.0013889390230178832	0		0.5145203857421875	-2.36747900390625	0		-0.9919882202148438	0.2023468475341797	0		-0.6232955322265625	-2.786853515625	0		1.6845263671875	-0.5084518432617188	0		3.365326171875	0.015063934326171875	0		4.648896484375	0.08973038482666015	0		5.928923828125	0.35449273681640625	0		-0.011113621711730958	6.0144677734375	0		
-0.009548558235168456	-0.001300794005393982	0		0.49638360595703124	-2.37289892578125	0		-0.9920010375976562	0.20260884094238282	0		-0.604350341796875	-2.787939697265625	0		1.6845086669921876	-0.5082083435058594	0		3.38092724609375	-0.005991819858551025	0		4.65502734375	0.09784291076660157	0		5.9420556640625	0.36246905517578126	0		0.005074808120727539	6.0234306640625	0		
0.029362413406372072	-0.007786821842193603	0		0.4755762634277344	-2.362299560546875	0		-0.9869006958007812	0.20674815368652344	0		-0.6541744995117188	-2.77780322265625	0		1.6876033935546875	-0.5040546569824219	0		3.3817548828125	0.0381959114074707	0		4.6536015625	0.1280588836669922	0		5.94622998046875	0.37056884765625	0		0.006132649898529053	6.02263525390625	0		
7.205790281295776E-4	0.008929276466369629	0		0.522717529296875	-2.35697021484375	0		-0.9128489990234375	0.20560055541992187	0		-0.598838134765625	-2.761610595703125	0		1.6738087158203125	-0.49562600708007815	0		3.363474365234375	0.019685922622680666	0		4.6669541015625	0.14396652221679687	0		5.93247998046875	0.3809570617675781	0		0.004324540138244629	6.02686181640625	0		
-0.00631588077545166	0.0022174129486083986	0		0.466828369140625	-2.353796142578125	0		-0.996724853515625	0.20830014038085937	0		-0.6306444091796874	-2.753863037109375	0		1.661877197265625	-0.49626531982421873	0		3.347585205078125	0.021101430892944337	0		4.65019384765625	0.15238540649414062	0		5.93257373046875	0.38105419921875	0		-0.010756741523742676	6.014296875	0		
-0.001280838966369629	-0.001744951009750366	0		0.5187738037109375	-2.361620361328125	0		-0.9226259765625	0.2070903015136719	0		-0.6044439697265624	-2.747202880859375	0		1.6530181884765625	-0.4939925842285156	0		3.36367333984375	0.019899446487426756	0		4.64059765625	0.16863973999023438	0		5.9285419921875	0.37318838500976564	0		-0.010578847885131836	6.0144248046875	0		
-0.009142123222351074	-5.028370022773743E-4	0		0.467000244140625	-2.353582763671875	0		-0.991583984375	0.20345783996582031	0		-0.6321532592773438	-2.735590087890625	0		1.6500587158203126	-0.49786126708984374	0		3.346270263671875	0.046278388977050784	0		4.6451015625	0.1896023406982422	0		5.94595458984375	0.38889871215820315	0		0.004830923080444336	6.02624560546875	0		
-0.005965717792510986	0.002505945920944214	0		0.5049394836425781	-2.362217529296875	0		-0.9863870239257813	0.20744265747070312	0		-0.6598610229492188	-2.724008544921875	0		1.6102176513671875	-0.495088623046875	0		3.366097412109375	0.029936456680297853	0		4.6506455078125	0.212510986328125	0		5.94608203125	0.3888856506347656	0		0.005031106948852539	6.0263095703125	0		
-9.20481026172638E-4	-0.0015536400079727173	0		0.4712702941894531	-2.348573974609375	0		-0.98626513671875	0.20748687744140626	0		-0.6275460815429688	-2.7115556640625	0		1.633381103515625	-0.4924998779296875	0		3.353566162109375	0.04915689468383789	0		4.641787109375	0.2136441650390625	0		5.94620654296875	0.38883721923828124	0		0.02509950828552246	6.01897607421875	0		
-0.0057350540161132816	0.002534569978713989	0		0.5232130737304688	-2.35653271484375	0		-0.9162356567382812	0.20221832275390625	0		-0.6701900634765625	-2.695765625	0		1.59045654296875	-0.493738037109375	0		3.3476611328125	0.04821853256225586	0		4.64117578125	0.22859414672851563	0		5.9463232421875	0.388753662109375	0		-0.009792613983154296	6.0146142578125	0		
-0.008689193725585938	-4.469580054283142E-4	0		0.4673267822265625	-2.353552490234375	0		-0.9212050170898437	0.19828610229492188	0		-0.59721240234375	-2.70112890625	0		1.6154176025390625	-0.5012532958984375	0		3.317931640625	0.057682907104492184	0		4.63870068359375	0.25154421997070314	0		5.94228271484375	0.380709228515625	0		-0.04173225784301758	6.0081640625	0		
-0.0036949050426483155	-0.005609936237335205	0		0.521280517578125	-2.359619384765625	0		-0.9910306396484375	0.2035077362060547	0		-0.6608956909179687	-2.686023193359375	0		1.5755224609375	-0.49961544799804686	0		3.3168544921875	0.04858479690551758	0		4.62706787109375	0.26662539672851565	0		5.9465205078125	0.38848065185546876	0		0.007721786022186279	6.0231923828125	0		
-0.005475601196289062	0.0023170249462127687	0		0.4735495300292969	-2.346857177734375	0		-0.9799756469726563	0.20221109008789062	0		-0.6645651245117188	-2.67005224609375	0		1.5804774169921876	-0.50583544921875	0		3.323366455078125	0.07231826019287109	0		4.62841845703125	0.2814345703125	0		5.95459716796875	0.3881465148925781	0		0.008855864524841309	6.0220654296875	0		
-4.910799860954285E-4	-0.0019186539649963378	0		0.5274783325195312	-2.352997314453125	0		-0.9059268798828125	0.2007213592529297	0		-0.6563941650390624	-2.662336669921875	0		1.566697265625	-0.49674453735351565	0		3.29244970703125	0.07370066070556641	0		4.6149228515625	0.30548513793945314	0		5.95466064453125	0.3879278564453125	0		0.02593143844604492	6.018609375	0		
-4.446499943733215E-4	-0.0020996780395507813	0		0.49646710205078126	-2.35461474609375	0		-0.915858154296875	0.2017337646484375	0		-0.5854810791015626	-2.6688125	0		1.5944215087890625	-0.5144539794921875	0		3.287626220703125	0.08057356262207031	0		4.617248046875	0.3202135009765625	0		5.950876953125	0.39675244140625	0		0.027026357650756835	6.01740966796875	0		
-0.0053341307640075684	0.0017743550539016724	0		0.5145878295898437	-2.349168212890625	0		-0.9848817749023437	0.19879304504394532	0		-0.6651632080078125	-2.651557861328125	0		1.5375726318359375	-0.5076408386230469	0		3.264648681640625	0.07974732208251953	0		4.60554638671875	0.33416998291015626	0		5.9509169921875	0.3964781188964844	0		-0.007965435028076171	6.0128359375	0		
